# xmcd
#
# Track frame offsets: 
#        150
#        11453
#        23209
#        37772
#        50757
#        60675
#        72909
#        83177
#        93446
#        106062
#        120599
#        133143
#        146128
#        157436
#        170670
#        180317
#        188876
#        196796
#
# Disc length: 2984 seconds
#
# Revision: 1
# Processed by: cddbd v1.5.2PL0 Copyright (c) Steve Scherf et al.
# Submitted via: ExactAudioCopy v0.95b2
#
DISCID=f80ba612
DTITLE=The Rattles - The Greatest Hits [CD 1)
DYEAR=2001
DGENRE=Rock
TTITLE0=The Witch
TTITLE1=Love Of My Life
TTITLE2=You Can't Have Sunshine Everyday
TTITLE3=La La La La La
TTITLE4=Come On And Sing
TTITLE5=Hello
TTITLE6=Zip-A-Dee-Doo-Dah (from Song Of The South)
TTITLE7=(Stoppin' In) Las Vegas
TTITLE8=Cauliflower
TTITLE9=Mister Keep Your Hand Off My Sister
TTITLE10=Gerladine
TTITLE11=Devil's On The Loose
TTITLE12=Somethin' Else (Live)
TTITLE13=After Tea
TTITLE14=Just Call Me
TTITLE15=Fought The Lord
TTITLE16=Mashed Potatoes
TTITLE17=Bye Bye Johnny B Good
EXTD=YEAR: 2001
EXTT0=
EXTT1=
EXTT2=
EXTT3=
EXTT4=
EXTT5=
EXTT6=
EXTT7=
EXTT8=
EXTT9=
EXTT10=
EXTT11=
EXTT12=
EXTT13=
EXTT14=
EXTT15=
EXTT16=
EXTT17=
PLAYORDER=
